<?xml version="1.0" standalone="no"?>
<!DOCTYPE svg PUBLIC "-//W3C//DTD SVG 20010904//EN"
 "http://www.w3.org/TR/2001/REC-SVG-20010904/DTD/svg10.dtd">
<svg version="1.0" xmlns="http://www.w3.org/2000/svg"
 width="220.000000pt" height="220.000000pt" viewBox="0 0 220.000000 220.000000"
 preserveAspectRatio="xMidYMid meet">
<metadata>
Created by potrace 1.14, written by Peter Selinger 2001-2017
</metadata>
<g transform="translate(0.000000,220.000000) scale(0.100000,-0.100000)"
fill="#000000" stroke="none">
<path d="M1504 1746 c-9 -22 -1 -29 66 -57 87 -37 161 -83 230 -145 128 -114
196 -217 258 -389 13 -37 23 -51 40 -53 33 -5 29 36 -13 138 -84 202 -241 374
-433 470 -95 49 -139 59 -148 36z"/>
<path d="M1457 1487 c-8 -21 3 -31 73 -68 101 -52 200 -159 253 -269 28 -59
48 -90 58 -90 32 0 30 32 -4 104 -66 138 -170 247 -299 312 -54 27 -74 30 -81
11z"/>
<path d="M690 1461 c-117 -36 -203 -120 -241 -235 -14 -46 -19 -51 -52 -58
-97 -20 -197 -101 -245 -197 -24 -49 -27 -68 -27 -151 0 -112 18 -161 86 -235
50 -55 106 -89 178 -111 74 -21 904 -16 966 7 68 25 119 56 163 98 216 210
158 555 -116 684 -54 26 -83 32 -148 35 -44 2 -97 -1 -116 -6 -33 -9 -37 -8
-49 15 -24 45 -117 121 -174 142 -57 22 -173 27 -225 12z m186 -56 c64 -19
125 -64 163 -121 16 -25 31 -50 33 -55 2 -6 30 -3 67 7 83 21 169 12 247 -25
274 -130 277 -520 6 -653 l-67 -33 -449 -3 c-385 -2 -456 0 -496 13 -142 47
-230 197 -201 341 25 129 127 224 261 243 43 6 45 7 52 50 11 66 45 127 95
171 83 72 186 96 289 65z"/>
</g>
</svg>
